# xmcd
#
# Track frame offsets: 
#        150
#        14728
#        29953
#        46195
#        59483
#
# Disc length: 970 seconds
#
# Revision: 0
# Processed by: cddbd v1.5.2PL0 Copyright (c) Steve Scherf et al.
# Submitted via: ExactAudioCopyFreeDBPlugin 1.0
#
DISCID=4603c805
DTITLE=Doug C and The Blacklisted - Hillbilly Stomp
DYEAR=2015
DGENRE=Country
TTITLE0=That Girl She's Wild
TTITLE1=Get Me Back to a Honky Tonk
TTITLE2=Rock This 'Til the Wheels Come Off
TTITLE3=I Went and Got a New Girlfriend
TTITLE4=Let It Be Me
EXTD=
EXTT0=
EXTT1=
EXTT2=
EXTT3=
EXTT4=
PLAYORDER=
